<mxfile host="app.diagrams.net" modified="2021-10-20T06:41:01.200Z" agent="5.0 (Macintosh; Intel Mac OS X 10_15_7) AppleWebKit/537.36 (KHTML, like Gecko) Chrome/94.0.4606.81 Safari/537.36" etag="Uq9eM5BPZmR_1v-jA_Xn" version="15.3.7" type="github">
  <diagram id="B7gFYEwUZWSkcUJdXMBy" name="Page-1">
    <mxGraphModel dx="902" dy="621" grid="1" gridSize="10" guides="1" tooltips="1" connect="1" arrows="1" fold="1" page="1" pageScale="1" pageWidth="827" pageHeight="1169" background="#ffffff" math="0" shadow="1">
      <root>
        <mxCell id="0" />
        <mxCell id="1" parent="0" />
      </root>
    </mxGraphModel>
  </diagram>
</mxfile>
